<?xml version="1.0" standalone="no"?>
<!DOCTYPE svg PUBLIC "-//W3C//DTD SVG 20010904//EN"
 "http://www.w3.org/TR/2001/REC-SVG-20010904/DTD/svg10.dtd">
<svg version="1.0" xmlns="http://www.w3.org/2000/svg"
 width="140.000000pt" height="140.000000pt" viewBox="0 0 140.000000 140.000000"
 preserveAspectRatio="xMidYMid meet">
<metadata>
Created by potrace 1.16, written by Peter Selinger 2001-2019
</metadata>
<g transform="translate(0.000000,140.000000) scale(0.100000,-0.100000)"
fill="#000000" stroke="none">
<path d="M20 1380 c-20 -20 -20 -33 -20 -680 0 -647 0 -660 20 -680 20 -20 33
-20 680 -20 647 0 660 0 680 20 20 20 20 33 20 680 0 647 0 660 -20 680 -20
20 -33 20 -680 20 -647 0 -660 0 -680 -20z m1308 -52 c17 -17 17 -1239 0
-1256 -17 -17 -1239 -17 -1256 0 -17 17 -17 1239 0 1256 17 17 1239 17 1256 0z"/>
<path d="M633 1240 c-4 -16 -14 -20 -48 -20 -63 0 -75 -7 -75 -45 0 -18 4 -35
8 -37 4 -1 22 -78 38 -171 23 -126 28 -170 19 -177 -19 -15 -97 -236 -93 -262
l3 -23 230 0 230 0 3 23 c4 24 -73 239 -93 260 -10 11 -7 40 11 145 13 73 24
133 24 135 0 6 29 1 34 -7 10 -16 -17 -131 -31 -131 -7 0 -13 -7 -13 -16 0
-11 8 -14 27 -12 24 3 29 9 40 53 6 28 12 69 12 93 1 40 -1 43 -29 49 -21 4
-30 11 -30 24 0 11 5 19 10 19 14 0 12 54 -2 68 -7 7 -33 12 -59 12 -38 0 -48
4 -52 20 -5 18 -14 20 -82 20 -68 0 -77 -2 -82 -20z m234 -117 c-3 -10 -8 -35
-12 -55 -5 -35 -9 -38 -38 -38 -23 0 -46 -12 -81 -40 -53 -44 -83 -55 -120
-46 -20 5 -25 15 -35 78 -7 40 -14 83 -18 96 l-5 22 157 0 c144 0 156 -1 152
-17z m-27 -134 c0 -6 -7 -51 -16 -100 l-17 -89 -93 0 -93 0 -6 38 c-4 20 -9
45 -12 55 -4 14 3 17 39 17 42 0 59 8 137 65 36 27 61 32 61 14z m36 -339 l42
-115 -200 -3 c-111 -1 -203 -1 -205 1 -3 4 72 212 84 230 2 4 57 6 121 5 l115
-3 43 -115z"/>
<path d="M608 433 c-9 -10 -20 -31 -26 -48 -6 -16 -11 -22 -11 -13 -1 9 -13
26 -28 38 -24 19 -37 21 -84 17 -68 -6 -112 -25 -117 -51 -3 -16 0 -18 23 -12
26 7 26 6 20 -24 -15 -67 -21 -140 -14 -152 7 -10 12 -11 29 0 11 6 33 12 49
12 67 0 110 48 82 92 -6 10 -7 18 -2 18 5 0 17 8 27 17 17 17 17 16 11 -19 -7
-46 9 -108 28 -109 43 -4 78 -3 84 1 5 3 13 19 19 35 l10 30 1 -31 c1 -37 9
-41 76 -37 66 4 64 4 113 -1 43 -3 44 -3 62 38 10 22 19 33 19 24 1 -21 34
-24 50 -4 8 10 7 21 -5 44 -13 27 -18 30 -38 22 -15 -5 -27 -5 -33 1 -14 14
-43 -17 -43 -45 0 -13 -7 -29 -15 -36 -22 -19 -20 2 11 77 28 71 28 110 1 127
-15 9 -22 7 -37 -12 -11 -13 -22 -40 -26 -60 -4 -25 -18 -46 -40 -65 -19 -16
-34 -37 -34 -48 0 -10 -5 -19 -10 -19 -7 0 -8 13 -4 36 8 45 -10 60 -43 38
-20 -13 -23 -13 -23 1 0 8 -4 15 -9 15 -14 0 -28 -23 -36 -57 -3 -18 -13 -33
-20 -33 -10 0 -6 17 15 63 29 61 36 99 24 131 -8 21 -37 20 -56 -1z"/>
</g>
</svg>
