<?xml version="1.0" encoding="UTF-8"?>
<svg width="48px" height="44px" viewBox="0 0 48 44" version="1.1" xmlns="http://www.w3.org/2000/svg" xmlns:xlink="http://www.w3.org/1999/xlink">
    <!-- Generator: Sketch 52.2 (67145) - http://www.bohemiancoding.com/sketch -->
    <title></title>
    <desc></desc>
    <g id="Page-1" stroke="none" stroke-width="1" fill="none" fill-rule="evenodd">
        <g id="noun_Dice_1061410-2" transform="translate(-1.000000, 0.000000)" fill="#000000">
            <g id="noun_Dice_1061410">
                <path d="M18.0996071,0 C17.5473271,0 17.0996071,0.44772 17.0996071,1 L17.0996071,7 C17.0996071,7.55228 17.5473271,8 18.0996071,8 C18.6518871,8 19.0996071,7.55228 19.0996071,7 L19.0996071,1 C19.0996071,0.44772 18.6518871,0 18.0996071,0 Z M8.11327929,1.0136719 C7.85735939,1.0136719 7.60150809,1.1113706 7.40624809,1.3066406 C7.01572809,1.6971606 7.01572809,2.3301831 7.40624809,2.7207031 L11.4062481,6.7207031 C11.7967681,7.1112231 12.4297901,7.1112231 12.8203101,6.7207031 C13.2108311,6.3301831 13.2108311,5.6971606 12.8203101,5.3066406 L8.82031059,1.3066406 C8.62505059,1.1113806 8.36919929,1.0136719 8.11327929,1.0136719 Z M39.6406231,2 C38.9911731,1.994 38.3291871,2.1155362 37.6933571,2.3789062 L27.0859361,6.7734375 C24.5426151,7.8269078 23.3249141,10.764044 24.3789041,13.308594 L28.7714821,23.912109 C29.8254821,26.456659 32.7633291,27.674554 35.3066391,26.621094 L45.9140601,22.226562 C48.4573701,21.173092 49.6750921,18.235956 48.6210921,15.691406 L44.2285141,5.0878906 C43.4380241,3.1794805 41.5889731,2.0172 39.6406231,2 Z M39.6367171,3.9921875 C40.8068371,3.9951875 41.8986171,4.6892757 42.3808571,5.8535156 L46.7714821,16.457031 C47.4144721,18.009341 46.6999761,19.734283 45.1484361,20.376953 L34.5410141,24.771484 C32.9894641,25.414154 31.2621391,24.698784 30.6191391,23.146484 L26.2285141,12.542969 C25.5855241,10.990659 26.3000111,9.265717 27.8515601,8.623047 L38.4589821,4.2285156 C38.8468721,4.0678856 39.2466771,3.9912375 39.6367171,3.9921875 Z M38.4999981,8 C37.671571,8 36.9999981,8.67157288 36.9999981,9.5 C36.9999981,10.3284271 37.671571,11 38.4999981,11 C39.3284252,11 39.9999981,10.3284271 39.9999981,9.5 C39.9999981,8.67157288 39.3284252,8 38.4999981,8 Z M7.09960749,11 C6.54732749,11 6.09960749,11.44772 6.09960749,12 C6.09960749,12.55228 6.54732749,13 7.09960749,13 L13.0996071,13 C13.6518871,13 14.0996071,12.55228 14.0996071,12 C14.0996071,11.44772 13.6518871,11 13.0996071,11 L7.09960749,11 Z M31.4999981,11 C30.671571,11 29.9999981,11.6715729 29.9999981,12.5 C29.9999981,13.3284271 30.671571,14 31.4999981,14 C32.3284252,14 32.9999981,13.3284271 32.9999981,12.5 C32.9999981,11.6715729 32.3284252,11 31.4999981,11 Z M36.4999981,13 C35.671571,13 34.9999981,13.6715729 34.9999981,14.5 C34.9999981,15.3284271 35.671571,16 36.4999981,16 C37.3284252,16 37.9999981,15.3284271 37.9999981,14.5 C37.9999981,13.6715729 37.3284252,13 36.4999981,13 Z M41.4999981,15 C40.671571,15 39.9999981,15.6715729 39.9999981,16.5 C39.9999981,17.3284271 40.671571,18 41.4999981,18 C42.3284252,18 42.9999981,17.3284271 42.9999981,16.5 C42.9999981,15.6715729 42.3284252,15 41.4999981,15 Z M10.3593731,17 C8.41102299,17.0172 6.56198249,18.179481 5.77148249,20.087891 L1.37890434,30.691406 C0.324914373,33.235956 1.54262559,36.173092 4.08593559,37.226562 L14.6933571,41.621094 C17.2366671,42.674554 20.1745241,41.456659 21.2285141,38.912109 L25.6210921,28.308594 C26.6750921,25.764044 25.4573701,22.826906 22.9140601,21.773438 L12.3066391,17.378906 C11.6708091,17.115536 11.0088231,16.99426 10.3593731,17 Z M34.4999981,18 C33.671571,18 32.9999981,18.6715729 32.9999981,19.5 C32.9999981,20.3284271 33.671571,21 34.4999981,21 C35.3284252,21 35.9999981,20.3284271 35.9999981,19.5 C35.9999981,18.6715729 35.3284252,18 34.4999981,18 Z M10.3632793,18.992188 C10.7533195,18.991238 11.1531241,19.067886 11.5410141,19.228516 L22.1484361,23.623047 C23.6999951,24.265717 24.4144721,25.990659 23.7714821,27.542969 L19.3808571,38.146484 C18.7378671,39.698794 17.0105321,40.414154 15.4589821,39.771484 L4.85156059,35.376953 C3.30000059,34.734283 2.58552369,33.009341 3.22851369,31.457031 L7.61913869,20.853516 C8.10138869,19.689276 9.19315919,18.995027 10.3632793,18.992188 Z M11.4999981,23 C10.671571,23 9.99999809,23.6715729 9.99999809,24.5 C9.99999809,25.3284271 10.671571,26 11.4999981,26 C12.3284252,26 12.9999981,25.3284271 12.9999981,24.5 C12.9999981,23.6715729 12.3284252,23 11.4999981,23 Z M18.4999981,26 C17.671571,26 16.9999981,26.6715729 16.9999981,27.5 C16.9999981,28.3284271 17.671571,29 18.4999981,29 C19.3284252,29 19.9999981,28.3284271 19.9999981,27.5 C19.9999981,26.6715729 19.3284252,26 18.4999981,26 Z M13.4999981,28 C12.671571,28 11.9999981,28.6715729 11.9999981,29.5 C11.9999981,30.3284271 12.671571,31 13.4999981,31 C14.3284252,31 14.9999981,30.3284271 14.9999981,29.5 C14.9999981,28.6715729 14.3284252,28 13.4999981,28 Z M8.49999809,30 C7.67157097,30 6.99999809,30.6715729 6.99999809,31.5 C6.99999809,32.3284271 7.67157097,33 8.49999809,33 C9.32842522,33 9.99999809,32.3284271 9.99999809,31.5 C9.99999809,30.6715729 9.32842522,30 8.49999809,30 Z M36.0996071,31 C35.5539571,31.008 35.0996071,31.45252 35.0996071,32 C35.0996071,32.55228 35.5473271,33 36.0996071,33 L42.0996071,33 C42.6518871,33 43.0996071,32.55228 43.0996071,32 C43.0996071,31.44772 42.6518871,31 42.0996071,31 L36.0996071,31 Z M15.4999981,33 C14.671571,33 13.9999981,33.6715729 13.9999981,34.5 C13.9999981,35.3284271 14.671571,36 15.4999981,36 C16.3284252,36 16.9999981,35.3284271 16.9999981,34.5 C16.9999981,33.6715729 16.3284252,33 15.4999981,33 Z M31.0996071,36 C30.5521271,36 30.1073071,36.45435 30.0996071,37 L30.0996071,43 C30.0996071,43.55228 30.5473271,44 31.0996071,44 C31.6518871,44 32.0996071,43.55228 32.0996071,43 L32.0996071,37 C32.0996071,36.44772 31.6518871,36 31.0996071,36 Z M37.1132791,37.013672 C36.8573591,37.013672 36.6015081,37.111371 36.4062481,37.306641 C36.0205281,37.692371 36.0181591,38.313538 36.3945291,38.705078 L36.3925761,38.707031 L36.4062481,38.720703 L40.3925761,42.707031 C40.7830961,43.097551 41.4297911,43.111043 41.8203101,42.720703 C42.2108311,42.330183 42.1973391,41.683489 41.8066391,41.292969 L37.8203101,37.306641 L37.8066391,37.292969 L37.8046861,37.294922 C37.6113551,37.109162 37.3628991,37.013672 37.1132791,37.013672 Z" id="Shape"></path>
            </g>
        </g>
    </g>
</svg>