<svg xmlns="http://www.w3.org/2000/svg" version="1.1" viewBox="0 0 1024 1280" x="0px" y="0px"><title>heart-2</title><path d="M919.1 158.2c-56.3-56.3-131.2-87.4-210.8-87.4-72.8 0-141.8 26-196.1 73.5-54.5-47.7-123.7-73.9-196.6-73.9-79.4 0-154.2 30.9-210.6 87.2-56.3 56.3-87.4 131.3-87.4 211 0 79.5 31.1 154.4 87.6 210.8l350.6 350.4c15.1 15.2 35.3 23.5 56.6 23.5 21.1 0 41.7-8.6 56.6-23.5l349.9-349.9c56.2-56.2 87.3-131.1 87.5-210.8 0-79.6-31-154.5-87.3-210.9zM924.8 369.1c0 57.7-22.6 112.1-63.5 153l-348.9 348.9-349.3-349.3c-41-41-63.5-95.3-63.5-153 0-57.5 22.4-111.8 63.1-152.8l0.3-0.3c40.8-40.8 95.1-63.3 152.8-63.3 57.8 0 112.3 22.6 153.2 63.5l14.4 14.4c7.7 7.7 18 12 29 12 10.8 0 21.4-4.4 29-12l14-14c41-41 95.4-63.5 153.2-63.5 57.7 0 112 22.5 152.8 63.3 40.9 40.9 63.4 95.3 63.4 153.1z"/><text x="0" y="1039" fill="#000000" font-size="5px" font-weight="bold" font-family="'Helvetica Neue', Helvetica, Arial-Unicode, Arial, Sans-serif">Created by shuai tawf</text><text x="0" y="1044" fill="#000000" font-size="5px" font-weight="bold" font-family="'Helvetica Neue', Helvetica, Arial-Unicode, Arial, Sans-serif">from the Noun Project</text></svg>