<svg xmlns="http://www.w3.org/2000/svg" xmlns:xlink="http://www.w3.org/1999/xlink" version="1.1" x="0px" y="0px" viewBox="-189 289.9 232.4 267.625" style="enable-background:new -189 289.9 232.4 214.1;" xml:space="preserve">
	<style type="text/css">
	.st0{fill: #FFC09F;stroke:#FFC09F;stroke-width:13;stroke-miterlimit:10;}

</style>
    <path class="st0" d="M-122.1,322.9c19.1-3.5,35,2.7,47,19c2.1,2.8,2.7,2.8,4.7,0c15.9-22.3,46-26.5,67-9.5  c22.4,18.3,24.2,53.8,3.4,74c-8.1,7.9-16.8,15-25.2,22.5c-14.8,13-29.6,25.8-44.4,38.8c-6.5,5.7-6.4,5.8-12.6-0.3  c-19.5-18.9-39-38-58.7-56.7c-7.3-6.9-13.3-14.3-16.6-24.1c-1.7-5.1-2.2-10.4-2.5-14.7C-159.9,347.4-144.1,326.9-122.1,322.9z" />
    <text x="-189" y="519" fill="#000000" font-size="5px" font-weight="bold" font-family="'Helvetica Neue', Helvetica, Arial-Unicode, Arial, Sans-serif"></text>
    <text x="-189" y="524" fill="#000000" font-size="5px" font-weight="bold" font-family="'Helvetica Neue', Helvetica, Arial-Unicode, Arial, Sans-serif"></text>
</svg>