<?xml version="1.0" encoding="UTF-8"?>
<svg width="183px" height="183px" viewBox="0 0 183 183" version="1.1" xmlns="http://www.w3.org/2000/svg" xmlns:xlink="http://www.w3.org/1999/xlink">
    <!-- Generator: Sketch 52.2 (67145) - http://www.bohemiancoding.com/sketch -->
    <title></title>
    <desc></desc>
    <g id="Page-1" stroke="none" stroke-width="1" fill="none" fill-rule="evenodd">
        <g id="Group" transform="translate(4.000000, 4.000000)">
            <g id="noun_Blender_3107695" transform="translate(39.000000, 6.000000)" fill="#000000">
                <path d="M2.4668,78.32031 L8.20703,82.09031 C9.13278967,82.6825259 10.3619465,82.4281138 10.97656,81.51707 C11.2678261,81.0736244 11.3709616,80.5326194 11.2632691,80.0131175 C11.1555765,79.4936156 10.8458813,79.0381903 10.40234,78.74707 L4.66211,74.97707 C4.06488679,74.5838049 3.30312917,74.5393515 2.66421652,74.8604802 C2.02530386,75.1816088 1.60647684,75.8194448 1.56574141,76.5333591 C1.52500598,77.2472734 1.86856195,77.9286104 2.4668,78.32033 L2.4668,78.32031 Z" id="Path"></path>
                <path d="M12.27734,74.93164 C12.8542362,75.8623176 14.0618782,76.1733782 15.0166,75.63721 C15.967823,75.0758615 16.2839233,73.8497074 15.72265,72.89844 L13.41113,68.98344 C12.8483161,68.0350801 11.624118,67.7211445 10.6743751,68.2816215 C9.72463225,68.8420986 9.40768322,70.0655199 9.96582,71.01664 L12.27734,74.93164 Z" id="Path"></path>
                <path d="M6.251,90 C7.31924004,89.9988169 8.19800398,89.1584059 8.24682485,88.0912814 C8.29564572,87.0241569 7.49728957,86.1070178 6.43362,86.0083 L2.18462,85.61475 C1.08693054,85.5165541 0.116658002,86.3248544 0.0149526886,87.4222242 C-0.0867526249,88.5195941 0.718440961,89.4924463 1.81548,89.59766 L6.06448,89.99121 C6.127,89.99707 6.18945,90 6.251,90 Z" id="Path"></path>
                <path d="M81.59766,78.74707 C81.1541187,79.0381903 80.8444235,79.4936156 80.7367309,80.0131175 C80.6290384,80.5326194 80.7321739,81.0736244 81.02344,81.51707 C81.6400218,82.4251726 82.8665672,82.6790486 83.79297,82.09032 L89.5332,78.32032 C90.131438,77.9286004 90.474994,77.2472634 90.4342586,76.5333491 C90.3935232,75.8194348 89.9746961,75.1815988 89.3357835,74.8604702 C88.6968708,74.5393415 87.9351132,74.5837949 87.33789,74.97706 L81.59766,78.74707 Z" id="Path"></path>
                <path d="M81.32813,68.27783 C80.8713932,68.0078296 80.3260538,67.9304813 79.8122505,68.0628252 C79.2984472,68.195169 78.8583346,68.5263469 78.58887,68.9834 L76.27735,72.8984 C75.7160767,73.8496674 76.032177,75.0758215 76.9834,75.63717 C77.9363965,76.1862767 79.153525,75.8727725 79.72266,74.9316 L82.03418,71.0166 C82.5954533,70.0653326 82.279353,68.8391785 81.32813,68.27783 Z" id="Path"></path>
                <path d="M89.81543,85.61475 L85.56643,86.0083 C84.5027698,86.1070167 83.7044163,87.0241408 83.7532234,88.0912565 C83.8020305,89.1583722 84.6807694,89.9987905 85.749,90 C85.81052,90 85.873,89.99707 85.93552,89.99121 L90.18452,89.59766 C91.281559,89.4924463 92.0867526,88.5195941 91.9850473,87.4222242 C91.883342,86.3248544 90.9130695,85.5165541 89.81538,85.61475 L89.81543,85.61475 Z" id="Path"></path>
                <path d="M70.86719,81.38525 C70.84961,81.3374 70.8291,81.29004 70.80762,81.24365 C70.0475385,79.6374171 68.5758824,78.4825215 66.835,78.1261 L75.23364,32 L82.03808,32 C82.6216908,31.9983274 83.1745188,32.26163 83.54101,32.71582 C83.9229974,33.179908 84.0777175,33.7903643 83.96289,34.38037 L79.48926,56 L76.86226,56 C75.7576905,56 74.86226,56.8954305 74.86226,58 C74.86226,59.1045695 75.7576905,60 76.86226,60 L79.48926,60 C81.3841127,59.9945685 83.0139398,58.6575294 83.38965,56.80029 L87.88281,35.17729 C88.2383817,33.4077843 87.7793895,31.5721828 86.63281,30.17829 C85.5065108,28.7984734 83.8192249,27.9985557 82.03809,28 L75.962,28 L77.41867,20 L78.11819,20 C79.0353241,19.9999835 79.8348403,19.3759902 80.05764,18.48633 L80.81741,15.45703 C81.265734,13.6621863 80.8613704,11.7608853 79.7214405,10.3038272 C78.5815106,8.84676917 76.8333859,7.99676012 74.9834,8 L60,8 L60,6 C59.9963846,2.68779021 57.3122098,0.00361542331 54,0 L38,0 C34.6877902,0.00361542331 32.0036154,2.68779021 32,6 L32,8 L17.0166,8 C15.1667033,7.99673784 13.418648,8.84666647 12.2787279,10.3036189 C11.1388077,11.7605713 10.7343873,13.6617604 11.1826,15.45654 L11.94237,18.48633 C12.1651715,19.3759974 12.9646985,19.9999926 13.88184,20 L14.58136,20 L25.165,78.1261 C23.4241251,78.4825272 21.9524774,79.6374221 21.1924,81.24365 C21.17092,81.29004 21.1504,81.3374 21.13283,81.38525 L6.50983,119.97607 C5.71240944,121.729871 5.85722854,123.76816 6.8946,125.3916 C7.91725387,127.016393 9.70316429,128.001582 11.623,128 L80.377,128 C82.2968784,128.001623 84.0828434,127.016429 85.10552,125.3916 C86.1428915,123.76816 86.2877106,121.729871 85.49029,119.97607 L70.86719,81.38525 Z M29.20813,78 L25.498,57.62378 C28.1110294,58.4931675 30.8448432,58.9449261 33.59865,58.9624 C38.9579762,58.9903088 44.1334565,57.0101797 48.10549,53.41211 C49.01272,52.61377 49.88186,51.82373 50.72756,51.05566 C56.84656,45.49615 61.00556,41.73303 69.09156,43.40179 L62.79187,78 L29.20813,78 Z M36,6 C36.001262,4.89595365 36.8959536,4.00126197 38,4 L54,4 C55.1040464,4.00126197 55.998738,4.89595365 56,6 L56.00073,8 L36,8 L36,6 Z M15.42383,12.77588 C15.8055919,12.2841076 16.3940442,11.9974571 17.0166,12 L74.9834,12 C75.6059558,11.9974571 76.1944081,12.2841076 76.57617,12.77588 C76.9550151,13.2583432 77.0888244,13.8891633 76.93847,14.48388 L76.55762,16 L15.44238,16 L15.06152,14.4834 C14.9112182,13.8888336 15.0450334,13.2581797 15.42383,12.77588 Z M73.3526,20 L69.80768,39.46893 C59.78736,37.44134 54.31354,42.39331 48.03809,48.09521 C47.20801,48.8496 46.35352,49.625 45.46289,50.40921 C36.90747,57.93814 27.297,54.27567 24.66339,53.04031 L18.6474,20 L73.3526,20 Z M81.72949,123.24561 C81.4395188,123.71411 80.9279769,123.999438 80.377,124 L11.623,124 C11.0720053,123.999455 10.5604405,123.714126 10.27046,123.24561 C9.9521231,122.75161 9.91257681,122.127911 10.16597,121.59766 C10.18745,121.55176 24.84077,82.88819 24.84077,82.88819 C25.1147145,82.3489336 25.665697,82.0066496 26.27051,82 L65.72951,82 C66.3343028,82.0066662 66.8852611,82.3489433 67.1592,82.88818 C67.1592,82.88818 81.8125,121.55176 81.834,121.59766 C82.0873872,122.127915 82.0478334,122.751614 81.72949,123.24561 Z" id="Shape" fill-rule="nonzero"></path>
                <path d="M46,92 C41.581722,92 38,95.581722 38,100 C38,104.418278 41.581722,108 46,108 C50.418278,108 54,104.418278 54,100 C53.9949466,95.5838169 50.4161831,92.0050534 46,92 Z M46,104 C43.790861,104 42,102.209139 42,100 C42,97.790861 43.790861,96 46,96 C48.209139,96 50,97.790861 50,100 C49.9976466,102.208163 48.2081634,103.997647 46,104 Z" id="Shape" fill-rule="nonzero"></path>
                <path d="M52,114 L50,114 C48.8954305,114 48,114.895431 48,116 C48,117.104569 48.8954305,118 50,118 L52,118 C53.1045695,118 54,117.104569 54,116 C54,114.895431 53.1045695,114 52,114 Z" id="Path"></path>
                <path d="M42,114 L40,114 C38.8954305,114 38,114.895431 38,116 C38,117.104569 38.8954305,118 40,118 L42,118 C43.1045695,118 44,117.104569 44,116 C44,114.895431 43.1045695,114 42,114 Z" id="Path"></path>
            </g>
            <rect id="Rectangle" stroke="#000000" stroke-width="4" fill-opacity="0" fill="#D8D8D8" stroke-linecap="square" stroke-linejoin="round" x="-2" y="-2" width="179" height="179" rx="10"></rect>
            <text id="Blndr." font-family="Pacifico-Regular, Pacifico" font-size="24" font-weight="normal" fill="#000000">
                <tspan x="53" y="166">Blndr.</tspan>
            </text>
        </g>
    </g>
</svg>
