<svg xmlns="http://www.w3.org/2000/svg" data-name="Layer 1" viewBox="0 0 100 125" x="0px" y="0px"><title>98all</title><path d="M91.75,45.74l-4.19-5.47a1,1,0,0,1-.2-.74l.92-6.64a7,7,0,0,0-4.33-7.46l-6.3-2.52a1,1,0,0,1-.56-.56l-2.52-6.3a7,7,0,0,0-7.46-4.34l-6.63.92a1,1,0,0,1-.75-.2L54.26,8.25a7,7,0,0,0-8.51,0l-5.47,4.19a1,1,0,0,1-.75.2l-6.64-.92a7,7,0,0,0-7.46,4.33l-2.52,6.3a1,1,0,0,1-.56.56l-6.3,2.52a7,7,0,0,0-4.33,7.46l.92,6.64a1,1,0,0,1-.2.74L8.25,45.74a7,7,0,0,0,0,8.51l4.19,5.47a1,1,0,0,1,.2.74l-.92,6.64a7,7,0,0,0,4.33,7.46l6.3,2.52a1,1,0,0,1,.56.56l2.52,6.3a7,7,0,0,0,7.46,4.33l6.63-.92a1,1,0,0,1,.75.2l5.47,4.19a7,7,0,0,0,8.51,0l5.47-4.19a1,1,0,0,1,.75-.2l6.64.92a7,7,0,0,0,7.46-4.33l2.52-6.3a1,1,0,0,1,.56-.56l6.3-2.52a7,7,0,0,0,4.33-7.46l-.92-6.64a1,1,0,0,1,.2-.74l4.19-5.47A7,7,0,0,0,91.75,45.74ZM87,50.61,82.8,56.08a7,7,0,0,0-1.38,5.21l.92,6.63A1,1,0,0,1,81.72,69l-6.3,2.52a7,7,0,0,0-3.9,3.9L69,81.72a1,1,0,0,1-1.06.62l-6.64-.92a7,7,0,0,0-5.21,1.38L50.61,87a1,1,0,0,1-1.22,0L43.92,82.8a7.06,7.06,0,0,0-4.27-1.44,6.91,6.91,0,0,0-.94.06l-6.64.92A1,1,0,0,1,31,81.72l-2.52-6.3a7,7,0,0,0-3.9-3.9L18.28,69a1,1,0,0,1-.62-1.07l.92-6.63a7,7,0,0,0-1.38-5.21L13,50.61a1,1,0,0,1,0-1.22l4.19-5.47a7,7,0,0,0,1.38-5.21l-.92-6.63A1,1,0,0,1,18.28,31l6.3-2.52a7,7,0,0,0,3.9-3.9L31,18.28a1,1,0,0,1,1.07-.62l6.64.92a7,7,0,0,0,5.21-1.38L49.39,13a1,1,0,0,1,1.21,0l5.47,4.19a7.07,7.07,0,0,0,5.21,1.38l6.64-.92a1,1,0,0,1,1.06.62l2.52,6.3a7,7,0,0,0,3.9,3.9L81.72,31a1,1,0,0,1,.62,1.07l-.92,6.63a7,7,0,0,0,1.38,5.21L87,49.39A1,1,0,0,1,87,50.61Z"/><path d="M62.57,37.23,45.78,56.72,37,49.57a3,3,0,0,0-3.8,4.64l11,9a3,3,0,0,0,4.17-.36l18.7-21.7a3,3,0,0,0-4.54-3.92Z"/><text x="0" y="115" fill="#000000" font-size="5px" font-weight="bold" font-family="'Helvetica Neue', Helvetica, Arial-Unicode, Arial, Sans-serif"></text><text x="0" y="120" fill="#000000" font-size="5px" font-weight="bold" font-family="'Helvetica Neue', Helvetica, Arial-Unicode, Arial, Sans-serif"></text></svg>